<mxfile host="app.diagrams.net" modified="2023-06-16T16:40:49.382Z" agent="Mozilla/5.0 (Windows NT 10.0; Win64; x64; rv:109.0) Gecko/20100101 Firefox/114.0" etag="ZLvPyO-4LlbqrtGtHoEQ" version="21.4.0" type="github">
  <diagram name="Page-1" id="PBjF0S1gfF1iQmg-wnNl">
    <mxGraphModel dx="600" dy="307" grid="1" gridSize="10" guides="1" tooltips="1" connect="1" arrows="1" fold="1" page="1" pageScale="1" pageWidth="1169" pageHeight="827" math="0" shadow="0">
      <root>
        <mxCell id="0" />
        <mxCell id="1" parent="0" />
        <mxCell id="rl__5Bupo7yeQbn3KmcP-3" value="" style="rounded=0;orthogonalLoop=1;jettySize=auto;html=1;exitX=0;exitY=1;exitDx=0;exitDy=0;" edge="1" parent="1" source="rl__5Bupo7yeQbn3KmcP-1" target="rl__5Bupo7yeQbn3KmcP-2">
          <mxGeometry relative="1" as="geometry" />
        </mxCell>
        <mxCell id="rl__5Bupo7yeQbn3KmcP-19" style="rounded=0;orthogonalLoop=1;jettySize=auto;html=1;exitX=1;exitY=1;exitDx=0;exitDy=0;" edge="1" parent="1" source="rl__5Bupo7yeQbn3KmcP-1" target="rl__5Bupo7yeQbn3KmcP-15">
          <mxGeometry relative="1" as="geometry" />
        </mxCell>
        <mxCell id="rl__5Bupo7yeQbn3KmcP-1" value="&lt;div style=&quot;font-size: 9px;&quot;&gt;&lt;font style=&quot;font-size: 9px;&quot;&gt;Item Close?&lt;/font&gt;&lt;/div&gt;&lt;div style=&quot;font-size: 9px;&quot;&gt;&lt;font style=&quot;font-size: 9px;&quot;&gt;Holding Item?&lt;br&gt;&lt;/font&gt;&lt;/div&gt;" style="rhombus;whiteSpace=wrap;html=1;fontSize=10;verticalAlign=middle;horizontal=1;" vertex="1" parent="1">
          <mxGeometry x="320" width="80" height="80" as="geometry" />
        </mxCell>
        <mxCell id="rl__5Bupo7yeQbn3KmcP-24" value="" style="rounded=0;orthogonalLoop=1;jettySize=auto;html=1;" edge="1" parent="1" source="rl__5Bupo7yeQbn3KmcP-2" target="rl__5Bupo7yeQbn3KmcP-23">
          <mxGeometry relative="1" as="geometry" />
        </mxCell>
        <mxCell id="rl__5Bupo7yeQbn3KmcP-26" style="rounded=0;orthogonalLoop=1;jettySize=auto;html=1;" edge="1" parent="1" source="rl__5Bupo7yeQbn3KmcP-2" target="rl__5Bupo7yeQbn3KmcP-25">
          <mxGeometry relative="1" as="geometry" />
        </mxCell>
        <mxCell id="rl__5Bupo7yeQbn3KmcP-2" value="&lt;font style=&quot;font-size: 11px;&quot;&gt;Any Delivery Point?&lt;/font&gt;" style="rhombus;whiteSpace=wrap;html=1;" vertex="1" parent="1">
          <mxGeometry x="220" y="100" width="80" height="80" as="geometry" />
        </mxCell>
        <mxCell id="rl__5Bupo7yeQbn3KmcP-15" value="" style="shape=image;html=1;verticalAlign=top;verticalLabelPosition=bottom;labelBackgroundColor=#ffffff;imageAspect=0;aspect=fixed;image=https://cdn0.iconfinder.com/data/icons/phosphor-fill-vol-4/256/spiral-fill-128.png;imageBackground=none;imageBorder=none;rotation=135;direction=north;" vertex="1" parent="1">
          <mxGeometry x="420" y="100" width="80" height="80" as="geometry" />
        </mxCell>
        <mxCell id="rl__5Bupo7yeQbn3KmcP-28" style="rounded=0;orthogonalLoop=1;jettySize=auto;html=1;" edge="1" parent="1" source="rl__5Bupo7yeQbn3KmcP-23" target="rl__5Bupo7yeQbn3KmcP-27">
          <mxGeometry relative="1" as="geometry" />
        </mxCell>
        <mxCell id="rl__5Bupo7yeQbn3KmcP-23" value="Is It the closest?" style="rhombus;whiteSpace=wrap;html=1;" vertex="1" parent="1">
          <mxGeometry x="120" y="200" width="80" height="80" as="geometry" />
        </mxCell>
        <mxCell id="rl__5Bupo7yeQbn3KmcP-25" value="" style="shape=image;html=1;verticalAlign=top;verticalLabelPosition=bottom;labelBackgroundColor=#ffffff;imageAspect=0;aspect=fixed;image=https://cdn0.iconfinder.com/data/icons/phosphor-fill-vol-4/256/spiral-fill-128.png;imageBackground=none;imageBorder=none;rotation=135;direction=north;" vertex="1" parent="1">
          <mxGeometry x="320" y="200" width="80" height="80" as="geometry" />
        </mxCell>
        <mxCell id="rl__5Bupo7yeQbn3KmcP-27" value="" style="shape=image;html=1;verticalAlign=top;verticalLabelPosition=bottom;labelBackgroundColor=#ffffff;imageAspect=0;aspect=fixed;image=https://cdn0.iconfinder.com/data/icons/phosphor-fill-vol-4/256/spiral-fill-128.png;imageBackground=none;imageBorder=none;rotation=135;direction=north;" vertex="1" parent="1">
          <mxGeometry x="220" y="300" width="80" height="80" as="geometry" />
        </mxCell>
        <mxCell id="rl__5Bupo7yeQbn3KmcP-34" value="" style="rounded=0;orthogonalLoop=1;jettySize=auto;html=1;" edge="1" parent="1" source="rl__5Bupo7yeQbn3KmcP-23" target="rl__5Bupo7yeQbn3KmcP-33">
          <mxGeometry relative="1" as="geometry">
            <mxPoint x="140" y="260" as="sourcePoint" />
            <mxPoint x="80" y="300" as="targetPoint" />
          </mxGeometry>
        </mxCell>
        <mxCell id="rl__5Bupo7yeQbn3KmcP-33" value="&lt;div&gt;Set delivery point&lt;/div&gt;" style="rounded=1;whiteSpace=wrap;html=1;" vertex="1" parent="1">
          <mxGeometry x="20" y="308" width="70" height="70" as="geometry" />
        </mxCell>
        <mxCell id="rl__5Bupo7yeQbn3KmcP-37" value="" style="rounded=0;orthogonalLoop=1;jettySize=auto;html=1;exitX=0;exitY=1;exitDx=0;exitDy=0;" edge="1" parent="1" source="rl__5Bupo7yeQbn3KmcP-39" target="rl__5Bupo7yeQbn3KmcP-42">
          <mxGeometry relative="1" as="geometry" />
        </mxCell>
        <mxCell id="rl__5Bupo7yeQbn3KmcP-38" style="rounded=0;orthogonalLoop=1;jettySize=auto;html=1;exitX=1;exitY=1;exitDx=0;exitDy=0;" edge="1" parent="1" source="rl__5Bupo7yeQbn3KmcP-39" target="rl__5Bupo7yeQbn3KmcP-43">
          <mxGeometry relative="1" as="geometry" />
        </mxCell>
        <mxCell id="rl__5Bupo7yeQbn3KmcP-39" value="Target close?" style="rhombus;whiteSpace=wrap;html=1;fontSize=10;verticalAlign=middle;horizontal=1;" vertex="1" parent="1">
          <mxGeometry x="850" width="80" height="80" as="geometry" />
        </mxCell>
        <mxCell id="rl__5Bupo7yeQbn3KmcP-40" value="" style="rounded=0;orthogonalLoop=1;jettySize=auto;html=1;" edge="1" parent="1" source="rl__5Bupo7yeQbn3KmcP-42" target="rl__5Bupo7yeQbn3KmcP-45">
          <mxGeometry relative="1" as="geometry" />
        </mxCell>
        <mxCell id="rl__5Bupo7yeQbn3KmcP-41" style="rounded=0;orthogonalLoop=1;jettySize=auto;html=1;" edge="1" parent="1" source="rl__5Bupo7yeQbn3KmcP-42" target="rl__5Bupo7yeQbn3KmcP-46">
          <mxGeometry relative="1" as="geometry" />
        </mxCell>
        <mxCell id="rl__5Bupo7yeQbn3KmcP-42" value="Arrived?" style="rhombus;whiteSpace=wrap;html=1;" vertex="1" parent="1">
          <mxGeometry x="750" y="100" width="80" height="80" as="geometry" />
        </mxCell>
        <mxCell id="rl__5Bupo7yeQbn3KmcP-43" value="" style="shape=image;html=1;verticalAlign=top;verticalLabelPosition=bottom;labelBackgroundColor=#ffffff;imageAspect=0;aspect=fixed;image=https://cdn0.iconfinder.com/data/icons/phosphor-fill-vol-4/256/spiral-fill-128.png;imageBackground=none;imageBorder=none;rotation=135;direction=north;" vertex="1" parent="1">
          <mxGeometry x="950" y="100" width="80" height="80" as="geometry" />
        </mxCell>
        <mxCell id="rl__5Bupo7yeQbn3KmcP-44" style="rounded=0;orthogonalLoop=1;jettySize=auto;html=1;" edge="1" parent="1" source="rl__5Bupo7yeQbn3KmcP-45" target="rl__5Bupo7yeQbn3KmcP-47">
          <mxGeometry relative="1" as="geometry" />
        </mxCell>
        <mxCell id="rl__5Bupo7yeQbn3KmcP-45" value="&lt;font style=&quot;font-size: 13px;&quot;&gt;Delivery Point?&lt;/font&gt;" style="rhombus;whiteSpace=wrap;html=1;" vertex="1" parent="1">
          <mxGeometry x="650" y="200" width="80" height="80" as="geometry" />
        </mxCell>
        <mxCell id="rl__5Bupo7yeQbn3KmcP-46" value="" style="shape=image;html=1;verticalAlign=top;verticalLabelPosition=bottom;labelBackgroundColor=#ffffff;imageAspect=0;aspect=fixed;image=https://cdn0.iconfinder.com/data/icons/phosphor-fill-vol-4/256/spiral-fill-128.png;imageBackground=none;imageBorder=none;rotation=135;direction=north;" vertex="1" parent="1">
          <mxGeometry x="850" y="200" width="80" height="80" as="geometry" />
        </mxCell>
        <mxCell id="rl__5Bupo7yeQbn3KmcP-47" value="" style="shape=image;html=1;verticalAlign=top;verticalLabelPosition=bottom;labelBackgroundColor=#ffffff;imageAspect=0;aspect=fixed;image=https://cdn0.iconfinder.com/data/icons/phosphor-fill-vol-4/256/spiral-fill-128.png;imageBackground=none;imageBorder=none;rotation=135;direction=north;" vertex="1" parent="1">
          <mxGeometry x="750" y="300" width="80" height="80" as="geometry" />
        </mxCell>
        <mxCell id="rl__5Bupo7yeQbn3KmcP-48" value="" style="rounded=0;orthogonalLoop=1;jettySize=auto;html=1;" edge="1" parent="1" source="rl__5Bupo7yeQbn3KmcP-45" target="rl__5Bupo7yeQbn3KmcP-49">
          <mxGeometry relative="1" as="geometry">
            <mxPoint x="670" y="260" as="sourcePoint" />
            <mxPoint x="610" y="300" as="targetPoint" />
          </mxGeometry>
        </mxCell>
        <mxCell id="rl__5Bupo7yeQbn3KmcP-49" value="Deliver Item" style="rounded=1;whiteSpace=wrap;html=1;" vertex="1" parent="1">
          <mxGeometry x="550" y="308" width="70" height="70" as="geometry" />
        </mxCell>
      </root>
    </mxGraphModel>
  </diagram>
</mxfile>
